<svg width="600" height="600" viewBox="0 0 600 600" fill="none" xmlns="http://www.w3.org/2000/svg">
<rect width="600" height="600" fill="white"/>
<g clip-path="url(#clip0)">
<rect x="86" y="86" width="428" height="428" fill="#222222"/>
<path d="M187.048 413V370.959L212.887 364.396V239.914L182.126 233.352V191.105H280.768L282.409 218.176L282.819 223.713C292.389 199.24 307.634 187.004 328.552 187.004C331.559 187.004 335.114 187.277 339.216 187.824C343.317 188.234 347.487 189.055 351.725 190.285L344.548 256.32L313.786 254.885C306.677 254.611 301.071 255.432 296.97 257.346C293.005 259.123 288.971 262.131 284.87 266.369V364.396L310.71 370.959V413H187.048ZM397.015 345.939C407.952 345.939 417.044 349.221 424.29 355.783C431.536 362.209 435.159 370.48 435.159 380.598C435.159 390.715 431.536 399.055 424.29 405.617C417.044 412.043 407.952 415.256 397.015 415.256C385.941 415.256 376.78 411.975 369.534 405.412C362.425 398.85 358.87 390.578 358.87 380.598C358.87 370.617 362.425 362.346 369.534 355.783C376.78 349.221 385.941 345.939 397.015 345.939Z" fill="white"/>
</g>
<defs>
<clipPath id="clip0">
<rect width="428" height="428" fill="white" transform="translate(86 86)"/>
</clipPath>
</defs>
</svg>
