<svg width="428" height="428" viewBox="0 0 428 428" fill="none" xmlns="http://www.w3.org/2000/svg">
<g clip-path="url(#clip0)">
<rect width="428" height="428" fill="white"/>
<path d="M101.048 327V284.959L126.887 278.396V153.914L96.1258 147.352V105.105H194.768L196.409 132.176L196.819 137.713C206.389 113.24 221.634 101.004 242.552 101.004C245.559 101.004 249.114 101.277 253.216 101.824C257.317 102.234 261.487 103.055 265.725 104.285L258.548 170.32L227.786 168.885C220.677 168.611 215.071 169.432 210.97 171.346C207.005 173.123 202.971 176.131 198.87 180.369V278.396L224.71 284.959V327H101.048ZM311.015 259.939C321.952 259.939 331.044 263.221 338.29 269.783C345.536 276.209 349.159 284.48 349.159 294.598C349.159 304.715 345.536 313.055 338.29 319.617C331.044 326.043 321.952 329.256 311.015 329.256C299.941 329.256 290.78 325.975 283.534 319.412C276.425 312.85 272.87 304.578 272.87 294.598C272.87 284.617 276.425 276.346 283.534 269.783C290.78 263.221 299.941 259.939 311.015 259.939Z" fill="#222222"/>
</g>
<defs>
<clipPath id="clip0">
<rect width="428" height="428" fill="white"/>
</clipPath>
</defs>
</svg>
