<?xml version="1.0" standalone="no"?>
<!DOCTYPE svg PUBLIC "-//W3C//DTD SVG 20010904//EN"
 "http://www.w3.org/TR/2001/REC-SVG-20010904/DTD/svg10.dtd">
<svg version="1.0" xmlns="http://www.w3.org/2000/svg"
 width="512.000000pt" height="512.000000pt" viewBox="0 0 512.000000 512.000000"
 preserveAspectRatio="xMidYMid meet">
<metadata>
Created by potrace 1.11, written by Peter Selinger 2001-2013
</metadata>
<g transform="translate(0.000000,512.000000) scale(0.100000,-0.100000)"
fill="#000000" stroke="none">
<path d="M420 2560 l0 -2140 2140 0 2140 0 0 2140 0 2140 -2140 0 -2140 0 0
-2140z m2608 1110 c50 -11 53 -13 48 -38 -3 -15 -20 -163 -37 -329 l-32 -303
-221 3 c-213 2 -223 1 -263 -21 -23 -12 -58 -36 -78 -53 l-35 -31 0 -492 0
-492 98 -24 c53 -12 112 -27 130 -32 l32 -9 0 -209 0 -210 -620 0 -620 0 0
210 0 210 28 6 c15 4 72 19 127 34 l100 26 3 622 2 622 -22 5 c-13 3 -81 18
-153 33 l-130 27 -3 213 -2 212 493 0 494 0 6 -82 c4 -46 7 -105 7 -133 0 -99
9 -103 47 -25 65 129 180 231 302 266 53 16 216 12 299 -6z m656 -1601 c162
-60 250 -218 216 -384 -15 -73 -30 -104 -76 -155 -103 -113 -295 -150 -460
-89 -89 33 -166 114 -193 203 -25 81 -26 122 -6 200 33 126 133 215 278 246
62 13 177 3 241 -21z"/>
</g>
</svg>
